<svg id="Layer_1" data-name="Layer 1" xmlns="http://www.w3.org/2000/svg" viewBox="0 0 113.24 41.55"><defs><style>.cls-1{font-size:14.01px;fill:#00ac69;font-family:Qualy-Bold, Qualy;font-weight:700;}.cls-2{letter-spacing:-0.09em;}.cls-3{fill:#f40808;}.cls-4{fill:#fff;}.cls-5{fill:#f8e49a;}.cls-6{fill:#feda00;}.cls-7{fill:#ffcb8b;}.cls-8{fill:#ff5917;}</style></defs><text class="cls-1" transform="translate(28.62 38.86) scale(1.08 1)">AL<tspan class="cls-2" x="17.06" y="0">V</tspan><tspan class="cls-3" x="25.67" y="0">OUC</tspan><tspan class="cls-4" x="54.67" y="0">HER</tspan></text><path class="cls-5" d="M24.16,14.44,35.37,28.5l11-8.76L35.16,5.67a.88.88,0,0,0-1.22-.11l-9.62,7.66A.88.88,0,0,0,24.16,14.44Zm8.29-4.79a.59.59,0,0,1-.21.37l-3.18,2.53a.55.55,0,0,1-.75,0,.51.51,0,0,1-.14-.43.54.54,0,0,1,.21-.36l1-.82a.75.75,0,0,1,.23-.88.77.77,0,0,1,.91,0l1-.82a.55.55,0,0,1,.77.07A.54.54,0,0,1,32.45,9.65Z" transform="translate(-19.02 -4.87)"/><path class="cls-6" d="M19.43,23.52l15.31,8.56L41.6,19.81,26.29,11.25a.85.85,0,0,0-1.15.36l-6,10.73A.86.86,0,0,0,19.43,23.52Zm5.83-7.59a.62.62,0,0,1-.06.42l-2,3.55a.56.56,0,0,1-.7.26.5.5,0,0,1-.28-.34.55.55,0,0,1,.06-.41l.64-1.15a.75.75,0,0,1-.1-.89.74.74,0,0,1,.81-.38l.64-1.15a.54.54,0,0,1,.72-.23A.53.53,0,0,1,25.26,15.93Z" transform="translate(-19.02 -4.87)"/><path class="cls-7" d="M36.24,6.84l1.51,17.45,14-1.22L50.25,5.62a.85.85,0,0,0-1-.74L37.05,5.94A.85.85,0,0,0,36.24,6.84Zm9.55.56a.57.57,0,0,1-.38.18l-4,.35a.55.55,0,0,1-.61-.42.55.55,0,0,1,.5-.61l1.31-.11a.76.76,0,0,1,.68-.59.77.77,0,0,1,.78.46l1.3-.11a.54.54,0,0,1,.6.47A.52.52,0,0,1,45.79,7.4Z" transform="translate(-19.02 -4.87)"/><path class="cls-8" d="M43.47,39.22l-.72.34-.33,0a2.87,2.87,0,0,1-3.12-1.26c-.13-.23-.28-.45-.42-.68l-1.19-2.52a2.8,2.8,0,0,0-.06-.28c-.49-1.29-1-2.59-1.48-3.89-.55-1.46-.87-2.93.08-4.39a1.48,1.48,0,0,0,.21-1.27,1.67,1.67,0,0,1,.79-2,6.41,6.41,0,0,0,.58-.45l.9-.43A2.62,2.62,0,0,1,41.58,24l10.3-4.89c-.4-1.2-.5-2.35.71-3.24l.81-.38c.13,0,.26,0,.38-.08a1.86,1.86,0,0,1,2.52.71,1.09,1.09,0,0,0,.8.46A3.84,3.84,0,0,1,60,18.25c.67,1,1.25,2,1.87,3,.38.62.74,1.26,1.11,1.89l1.19,2.52a5.62,5.62,0,0,0,.19.58,2.4,2.4,0,0,1-.16,2.44,9.29,9.29,0,0,1-1,1.17l-.72.34a3.16,3.16,0,0,1-2.14-.34c-.68-.4-1.3-.88-2-1.32-.4-.27-.81-.52-1.21-.77a1.14,1.14,0,0,0-.14.16,3.26,3.26,0,0,1-5,1.24.64.64,0,0,0-.51,0c-.65.28-1.29.61-1.94.9a.54.54,0,0,0-.4.58,3,3,0,0,1-1.81,2.7,2.88,2.88,0,0,1-2.38.22.43.43,0,0,0-.07.17c-.09.93-.18,1.85-.26,2.78A3.91,3.91,0,0,1,43.47,39.22ZM47.89,30a2,2,0,1,0-1,2.61A2,2,0,0,0,47.89,30Zm4.53-2.14a2,2,0,0,0,3.63-1.77,2,2,0,0,0-3.63,1.77Zm2.51-9.88a1,1,0,0,0-.5,1.34,1,1,0,0,0,1.32.47,1.06,1.06,0,0,0,.55-1.35A1,1,0,0,0,54.93,17.94Zm2.62,5.56a1,1,0,0,0,.54-1.34,1.07,1.07,0,0,0-1.39-.45A1,1,0,0,0,56.21,23,1,1,0,0,0,57.55,23.5Zm-4-2.61a1,1,0,0,0-.53,1.33,1,1,0,0,0,1.36.46A1,1,0,0,0,55,21.37,1,1,0,0,0,53.59,20.89Zm4.47-2.12a1,1,0,0,0-.47,1.35,1,1,0,0,0,1.33.43,1,1,0,0,0,.52-1.35A1,1,0,0,0,58.06,18.77Zm-17.78,12,1.48-.7c-.25-.6-.41-1.22-1.18-1.35A.47.47,0,0,0,40,29C39.59,29.71,40,30.22,40.28,30.79Zm1.58-4.25c-.66.25-1.27.45-1.44,1.22a.42.42,0,0,0,.28.55c.7.35,1.24,0,1.82-.37Zm-4.37,2.08.66,1.4c.64-.26,1.32-.45,1.42-1.23a.56.56,0,0,0-.23-.47C38.68,27.92,38.1,28.23,37.49,28.62Zm.76-2.13c.23.66.46,1.24,1.23,1.36a.4.4,0,0,0,.51-.23c.4-.7.08-1.25-.28-1.83Zm6.8.05,1.42-.67-.39-.81-1.42.67Zm5.11-2.36L51.4,23l-1.68.23Z" transform="translate(-19.02 -4.87)"/></svg>